<svg xmlns="http://www.w3.org/2000/svg" xmlns:xlink="http://www.w3.org/1999/xlink" width="1056" zoomAndPan="magnify" viewBox="0 0 792 791.999994" height="1056" preserveAspectRatio="xMidYMid meet" version="1.2"><defs><filter x="0%" y="0%" width="100%" filterUnits="objectBoundingBox" id="4b0c0ab3c5" height="100%"><feColorMatrix values="0 0 0 0 1 0 0 0 0 1 0 0 0 0 1 0 0 0 1 0" type="matrix" in="SourceGraphic"/></filter><clipPath id="2ab8bcd924"><path d="M 396 0 C 177.296875 0 0 177.296875 0 396 C 0 614.703125 177.296875 792 396 792 C 614.703125 792 792 614.703125 792 396 C 792 177.296875 614.703125 0 396 0 Z M 396 0 "/></clipPath><clipPath id="f7699a85b5"><rect x="0" width="792" y="0" height="792"/></clipPath><clipPath id="ba204a752d"><path d="M 249.484375 169.308594 L 542.515625 169.308594 L 542.515625 622.535156 L 249.484375 622.535156 Z M 249.484375 169.308594 "/></clipPath></defs><g id="95d22dd701"><g mask="url(#31bd6e97aa)" transform="matrix(1,0,0,1,0,-0.000000000000060192)"><g clip-path="url(#f7699a85b5)"><g clip-rule="nonzero" clip-path="url(#2ab8bcd924)"><rect x="0" width="792" height="792" y="0" style="fill:#ffffff;fill-opacity:1;stroke:none;"/></g></g><mask id="31bd6e97aa"><g filter="url(#4b0c0ab3c5)"><rect x="0" width="792" y="0" height="791.999994" style="fill:#000000;fill-opacity:0.42;stroke:none;"/></g></mask></g><g clip-rule="nonzero" clip-path="url(#ba204a752d)"><path style=" stroke:none;fill-rule:nonzero;fill:#d9d9d9;fill-opacity:1;" d="M 534.371094 378.664062 L 286.164062 174.570312 C 267.472656 159.1875 241.113281 180.355469 252.0625 201.929688 L 303.195312 385.792969 C 306.425781 392.144531 306.425781 399.65625 303.195312 406.015625 L 252.0625 589.917969 C 241.105469 611.492188 267.464844 632.648438 286.164062 617.289062 L 534.371094 413.171875 C 545.238281 404.230469 545.238281 387.601562 534.371094 378.664062 "/></g></g></svg>